<svg xmlns="http://www.w3.org/2000/svg" xmlns:xlink="http://www.w3.org/1999/xlink" version="1.1" id="Layer_1" x="0px" y="0px" width="100px" height="100px" viewBox="0 0 100 100" enable-background="new 0 0 100 100" xml:space="preserve">
<g>
	<path d="M34.17,39.806c0,0-0.801-8.184,13.161-9.068c0,0,16.206-1.122,17.574,9.068c0,0,0.479,2.969,0,8.024   c0,0,1.526,0.4,1.658,2.14c0,0,0.321,5.51-2.354,8.132h-1.367c0,0-3.234,11.419-6.763,13.372c0,0,25.484,5.425,29.017,15.484v8.13   H14.383v-7.702c0,0,0.854-5.671,8.771-8.455c0,0,14.499-7.857,20.112-7.162c0,0-4.442-3.959-6.792-13.592c0,0-3,1.927-3.638-4.865   c0,0-0.748-4.707,1.5-5.295L34.17,39.806z"/>
	<path d="M32.674,37.545l-17.981-8.96L48.941,5.872c0,0,0.514-0.306,1.186,0.306l33.686,22.407l-17.336,8.96   c0,0,0.442-11.928-19.364-10.617C47.112,26.928,32.1,27.274,32.674,37.545z"/>
	<path d="M24.541,52.527L23.17,24.148c0,0-0.026-0.04-0.08-0.098c0.601-0.312,1.009-0.937,1.009-1.659   c0-1.031-0.838-1.868-1.87-1.868c-1.031,0-1.87,0.836-1.87,1.868c0,0.75,0.446,1.394,1.08,1.694   c-0.022,0.021-0.038,0.04-0.053,0.062c0,0-1.696,18.992-1.443,28.838c0,0-0.567,3.906,2.569,3.479   C22.513,56.466,24.715,56.379,24.541,52.527z"/>
</g>
</svg>