<svg xmlns:dc="http://purl.org/dc/elements/1.1/" xmlns:cc="http://creativecommons.org/ns#" xmlns:rdf="http://www.w3.org/1999/02/22-rdf-syntax-ns#" xmlns:svg="http://www.w3.org/2000/svg" xmlns="http://www.w3.org/2000/svg" xmlns:sodipodi="http://sodipodi.sourceforge.net/DTD/sodipodi-0.dtd" xmlns:inkscape="http://www.inkscape.org/namespaces/inkscape" version="1.1" x="0px" y="0px" viewBox="0 0 128 128" enable-background="new 0 0 128 128" xml:space="preserve"><path style="" d="M 24 18 C 20.7 18 18 20.7 18 24 L 18 34 C 18 37.3 20.7 40 24 40 L 63 40 L 63 47.800781 C 63 47.900781 62.999609 48 63.099609 48 L 24 48 C 20.7 48 18 50.7 18 54 L 18 64 C 18 67.3 20.7 70 24 70 L 59.900391 70 C 60.100391 69.3 60.3 68.7 60.5 68 L 24 68 C 21.8 68 20 66.2 20 64 L 20 54 C 20 51.8 21.8 50 24 50 L 81.300781 50 C 83.000781 49.7 84.7 49.5 86.5 49.5 C 88.3 49.5 89.999219 49.7 91.699219 50 L 104 50 C 106.2 50 108 51.8 108 54 L 108 59.900391 C 108.7 60.800391 109.4 61.799219 110 62.699219 L 110 54 C 110 50.7 107.3 48 104 48 L 64.900391 48 C 64.900391 47.9 65 47.800781 65 47.800781 L 65 40 L 104 40 C 107.3 40 110 37.3 110 34 L 110 24 C 110 20.7 107.3 18 104 18 L 24 18 z M 24 20 L 104 20 C 106.2 20 108 21.8 108 24 L 108 34 C 108 36.2 106.2 38 104 38 L 24 38 C 21.8 38 20 36.2 20 34 L 20 24 C 20 21.8 21.8 20 24 20 z M 29.599609 27 A 2 2 0 0 0 27.599609 29 A 2 2 0 0 0 29.599609 31 A 2 2 0 0 0 31.599609 29 A 2 2 0 0 0 29.599609 27 z M 40 27 A 2 2 0 0 0 38 29 A 2 2 0 0 0 40 31 A 2 2 0 0 0 42 29 A 2 2 0 0 0 40 27 z M 50.400391 27 A 2 2 0 0 0 48.400391 29 A 2 2 0 0 0 50.400391 31 A 2 2 0 0 0 52.400391 29 A 2 2 0 0 0 50.400391 27 z M 63.400391 28 C 62.800391 28 62.400391 28.4 62.400391 29 C 62.400391 29.6 62.800391 30 63.400391 30 L 98 30 C 98.6 30 99 29.6 99 29 C 99 28.4 98.6 28 98 28 L 63.400391 28 z M 86.5 53.5 C 73.5 53.5 63 64 63 77 C 63 90 73.5 100.5 86.5 100.5 C 99.5 100.5 110 90 110 77 C 110 64 99.5 53.5 86.5 53.5 z M 86.5 55.5 C 98.4 55.5 108 65.1 108 77 C 108 88.9 98.4 98.5 86.5 98.5 C 74.6 98.5 65 88.9 65 77 C 65 65.1 74.6 55.5 86.5 55.5 z M 29.599609 57 A 2 2 0 0 0 27.599609 59 A 2 2 0 0 0 29.599609 61 A 2 2 0 0 0 31.599609 59 A 2 2 0 0 0 29.599609 57 z M 40 57 A 2 2 0 0 0 38 59 A 2 2 0 0 0 40 61 A 2 2 0 0 0 42 59 A 2 2 0 0 0 40 57 z M 50.400391 57 A 2 2 0 0 0 48.400391 59 A 2 2 0 0 0 50.400391 61 A 2 2 0 0 0 52.400391 59 A 2 2 0 0 0 50.400391 57 z M 63.400391 58 C 62.900391 58 62.400391 58.4 62.400391 59 C 62.400391 59.6 62.800391 60 63.400391 60 L 64.900391 60 C 65.400391 59.3 65.999609 58.6 66.599609 58 L 63.400391 58 z M 86.5 58.5 C 85.9 58.5 85.5 58.9 85.5 59.5 L 85.5 77 C 85.5 77.6 85.9 78 86.5 78 L 98.5 78 C 99.1 78 99.5 77.6 99.5 77 C 99.5 76.4 99.1 76 98.5 76 L 87.5 76 L 87.5 59.5 C 87.5 58.9 87.1 58.5 86.5 58.5 z M 24 79 C 20.7 79 18 81.7 18 85 L 18 95 C 18 98.3 20.7 101 24 101 L 63 101 L 63 108 L 19 108 C 18.4 108 18 108.4 18 109 C 18 109.6 18.4 110 19 110 L 109 110 C 109.6 110 110 109.6 110 109 C 110 108.4 109.6 108 109 108 L 65 108 L 65 101 L 73.099609 101 C 71.999609 100.4 71 99.7 70 99 L 24 99 C 21.8 99 20 97.2 20 95 L 20 85 C 20 82.8 21.8 81 24 81 L 59.300781 81 C 59.200781 80.3 59.099609 79.7 59.099609 79 L 24 79 z M 29.599609 88 A 2 2 0 0 0 27.599609 90 A 2 2 0 0 0 29.599609 92 A 2 2 0 0 0 31.599609 90 A 2 2 0 0 0 29.599609 88 z M 40 88 A 2 2 0 0 0 38 90 A 2 2 0 0 0 40 92 A 2 2 0 0 0 42 90 A 2 2 0 0 0 40 88 z M 50.400391 88 A 2 2 0 0 0 48.400391 90 A 2 2 0 0 0 50.400391 92 A 2 2 0 0 0 52.400391 90 A 2 2 0 0 0 50.400391 88 z M 110 91.300781 C 109.4 92.300781 108.7 93.199609 108 94.099609 L 108 95 C 108 97.2 106.2 99 104 99 L 103 99 C 102 99.7 101.00039 100.4 99.900391 101 L 104 101 C 107.3 101 110 98.3 110 95 L 110 91.300781 z " fill="#000000"></path></svg>