<svg xmlns="http://www.w3.org/2000/svg" xmlns:xlink="http://www.w3.org/1999/xlink" version="1.1" x="0px" y="0px" viewBox="0 0 100 100" enable-background="new 0 0 100 100" xml:space="preserve"><g><g><path d="M72,86H25c-0.507,0-0.933-0.379-0.993-0.882l-7-59c-0.062-0.519,0.286-0.996,0.797-1.099l20-4    c0.322-0.063,0.656,0.034,0.892,0.262c0.236,0.229,0.345,0.559,0.291,0.883L37.114,33.4l8.292,3.686    c0.25,0.111,0.443,0.319,0.535,0.576s0.075,0.541-0.047,0.785l-4.553,9.105l7.105,3.553c0.317,0.159,0.527,0.474,0.55,0.828    l0.452,6.768l1.566-8.875c0.044-0.25,0.182-0.474,0.385-0.626l7.013-5.26l-7.071-6.188c-0.209-0.183-0.332-0.443-0.341-0.72    c-0.01-0.276,0.097-0.545,0.292-0.74l7.646-7.646l-0.93-6.505c-0.044-0.311,0.06-0.624,0.281-0.847    c0.221-0.223,0.536-0.324,0.844-0.286l22,3C81.4,24.045,81.64,24.187,81.8,24.4c0.161,0.214,0.229,0.483,0.189,0.748l-9,60    C72.915,85.638,72.495,86,72,86z M25.888,84h45.25l8.722-58.146L60.178,23.17l0.812,5.688c0.044,0.312-0.061,0.626-0.283,0.849    l-7.244,7.244l7.195,6.296c0.228,0.199,0.353,0.489,0.341,0.791c-0.011,0.301-0.158,0.581-0.399,0.762l-7.684,5.763l-2.931,16.611    c-0.088,0.498-0.522,0.861-1.039,0.825c-0.505-0.027-0.91-0.428-0.943-0.933l-0.962-14.428l-7.488-3.744    c-0.494-0.247-0.694-0.848-0.447-1.342l4.532-9.063l-8.044-3.575c-0.417-0.186-0.655-0.629-0.58-1.078l1.762-10.571L19.102,26.8    L25.888,84z"></path></g></g></svg>