<svg xmlns="http://www.w3.org/2000/svg" xmlns:xlink="http://www.w3.org/1999/xlink" version="1.1" id="Your_Icon" x="0px" y="0px" width="100px" height="100px" viewBox="0 0 100 100" enable-background="new 0 0 100 100" xml:space="preserve">
<g>
	<path fill="#000000" d="M41.796,71.513c0,5.502,1.34,10.78,3.872,15.498h-0.621c-2.744,0-4.968,2.225-4.968,4.969v7.747   c0,0.094,0.023,0.181,0.028,0.273H16.379c0.038-0.936,0.187-2.491,0.609-5.04c0.936-5.6,6.269-11.07,9.028-15.516   c0.416-0.671,0.866-1.284,1.322-1.893c0.776-3.34,1.406-6.591,1.406-6.591l1.924-0.477c0.187-1.287,0.23-2.789,0.081-4.604   c-1.063-12.931-13.815-6.087-17.482-8.412c-3.412-2.161-1.37-4.538-1.422-6.246c-0.094-3.142-1.765-2.494-1.874-3.321   c-0.179-1.345,0.958-1.452,0.961-1.658c-0.009-0.536-1.858-1.028-1.547-1.799c0.26-0.638,1.06-2.286,1.298-2.937   c0.522-1.431-5.426-1.492-4.393-3.372c0.741-1.348,4.059-6.241,5.208-7.87c1.769-2.502,1.307-3.463,0.306-5.308   c-0.493-0.91,1.451-3.162,1.555-4.096c0.513-4.474,1.897-9.072,3.901-11.451c0.55-0.655-0.79-2.101,0.013-3.208   c3.19-4.42,13.767-6.18,18.838-6.202c14.828-0.064,21.13,2.487,24.956,17.222c0.031,0.116,0.048,0.235,0.077,0.353l-2.287,1.979   c-0.457-0.308-0.953-0.559-1.494-0.704c-0.422-0.113-0.854-0.169-1.284-0.169c-0.864,0-1.723,0.226-2.484,0.667l-5.885,3.399   c-2.375,1.372-3.189,4.408-1.818,6.783l0.401,0.695c-0.425,1.295-0.318,2.761,0.417,4.035l6.87,11.895   C46.127,52.413,41.796,61.59,41.796,71.513z"/>
</g>
<rect x="72.552" y="76.828" transform="matrix(0.866 -0.5 0.5 0.866 -28.1674 52.2654)" fill="#000000" width="21.805" height="3.741"/>
<g>
	<path fill="#000000" d="M55.678,91.979c-5.463-5.149-8.914-12.389-8.914-20.467c0-9.954,5.225-18.927,13.354-23.97l-9.105-15.765   l1.432-0.829l-2.249-3.9l5.884-3.399l2.25,3.898l1.512-0.871l22.386,38.778l-1.958,1.136l2.773,4.805l-4.909,2.833l-2.779-4.803   l-1.951,1.132l-9.414-16.309c-5.779,3.677-9.474,10.122-9.474,17.264c0,11.288,9.181,20.467,20.465,20.467   c7.554,0,16.499,0,16.499,0v7.747H45.047v-7.747C45.047,91.979,51.918,91.979,55.678,91.979z"/>
</g>
</svg>