<svg xmlns="http://www.w3.org/2000/svg" xmlns:xlink="http://www.w3.org/1999/xlink" version="1.1" id="Capa_1" x="0px" y="0px" width="100px" height="100px" viewBox="0 0 100 100" enable-background="new 0 0 100 100" xml:space="preserve">
<path d="M19.49,5.644l-0.026-0.002l0,0.004l-0.031,0.002l0,0.008h0l-0.382-0.04L19.049,6c-0.003,0.663-0.294,66.323-0.402,72.479  l-0.004,0.22l0.197,0.098c7.647,3.798,37.719,15.674,48.365,19.67l0.461,0.175l0.007-0.494c0.022-1.276,0.036-3.033,0.045-5.175  l4.53,0.431l0.022-4.144l3.18,0.173l0.019-3.44l2.313-0.048l0.021-2.713c0.395-0.074,1.158-0.22,1.974-0.392l0.271-0.058  l0.006-0.277c0.166-9.543,1.217-80.316,1.229-81.029l0.006-0.38L19.49,5.644z M67.043,82.398c-0.005,6.746-0.01,12.148-0.055,15.244  C56.063,93.525,27.166,82.104,19.347,78.27c0.106-7.052,0.373-66.486,0.397-71.879c3.218,0.356,25.84,2.973,36.622,7.379  c0.056,0.031,0.236,0.133,0.518,0.307c1.066,0.828,2.328,3.194,1.964,9.88c-0.009,0.157-0.015,0.267-0.016,0.325  c-0.014,0.793,1.078,1.149,2.729,1.688c2.37,0.772,5.606,1.83,5.843,4.462c0.001,0.024,0.005,0.047,0.006,0.071h0.001  C67.07,49.795,67.055,68.638,67.043,82.398z M58.586,15.249c2.775,2.091,7.279,6.383,8.521,12.855  c-1.279-1.472-3.537-2.212-5.334-2.798c-0.896-0.293-2.254-0.735-2.248-1.015c0-0.053,0.007-0.155,0.015-0.299  C59.755,20.059,59.427,17.113,58.586,15.249z M71.557,92.639l-3.837-0.367c0.011-2.763,0.014-6.105,0.017-9.873  c0.011-13.763,0.027-32.61,0.365-51.936h0.004c-0.556-9.858-8.522-15.521-10.818-16.954c-0.184-0.139-0.377-0.256-0.581-0.346  c-0.021-0.012-0.035-0.02-0.038-0.021l-0.001,0.001c-0.011-0.005-0.021-0.012-0.032-0.017c-5.44-2.224-13.852-3.993-21.302-5.251  l30.119,2.917c0.383,0.558,1.873,2.873,1.357,4.478l-0.179,0.552l0.571-0.104c0.912-0.173,3.558,0.636,4.759,1.049L71.557,92.639z   M66.363,10.923c1.336,0.292,4.119,1.345,5.402,5.047c-1.038-0.341-2.992-0.932-4.187-0.964  C67.781,13.53,66.921,11.837,66.363,10.923z M74.759,88.695l-2.485-0.134l0.385-72.037l0.002-0.247l-0.074-0.026  c-1.529-5.222-5.868-6.014-6.754-6.12l-0.001-0.001l-0.044-0.004c-0.07-0.007-0.121-0.012-0.126-0.012l-33.872-3.28l43.404,1.732  L74.759,88.695z M77.09,85.264l-1.617,0.032l0.42-77.397L31.031,6.108l46.655-0.942L77.09,85.264z M79.363,82.213  c-0.623,0.129-1.191,0.238-1.557,0.307l0.576-77.707l0.004-0.357L32.489,5.383l48.093-3.54  C80.499,7.434,79.538,72.064,79.363,82.213z"/>
</svg>