<?xml version="1.0" encoding="UTF-8" standalone="no"?>
<svg
   xmlns:dc="http://purl.org/dc/elements/1.1/"
   xmlns:cc="http://creativecommons.org/ns#"
   xmlns:rdf="http://www.w3.org/1999/02/22-rdf-syntax-ns#"
   xmlns:svg="http://www.w3.org/2000/svg"
   xmlns="http://www.w3.org/2000/svg"
   xmlns:sodipodi="http://sodipodi.sourceforge.net/DTD/sodipodi-0.dtd"
   xmlns:inkscape="http://www.inkscape.org/namespaces/inkscape"
   version="1.1"
   id="Layer_1"
   x="0px"
   y="0px"
   width="68.059998"
   height="73.332001"
   viewBox="0 0 68.059998 73.332001"
   enable-background="new 0 0 100 100"
   xml:space="preserve"
   inkscape:version="0.48.2 r9819"
   sodipodi:docname="praca_doktorska.svg"><metadata
   id="metadata3033"><rdf:RDF><cc:Work
       rdf:about=""><dc:format>image/svg+xml</dc:format><dc:type
         rdf:resource="http://purl.org/dc/dcmitype/StillImage" /></cc:Work></rdf:RDF></metadata><defs
   id="defs3031" /><sodipodi:namedview
   pagecolor="#ffffff"
   bordercolor="#666666"
   borderopacity="1"
   objecttolerance="10"
   gridtolerance="10"
   guidetolerance="10"
   inkscape:pageopacity="0"
   inkscape:pageshadow="2"
   inkscape:window-width="640"
   inkscape:window-height="480"
   id="namedview3029"
   showgrid="false"
   fit-margin-top="0"
   fit-margin-left="0"
   fit-margin-right="0"
   fit-margin-bottom="0"
   inkscape:zoom="2.36"
   inkscape:cx="-18.939"
   inkscape:cy="49.487"
   inkscape:window-x="666"
   inkscape:window-y="131"
   inkscape:window-maximized="0"
   inkscape:current-layer="Layer_1" />
<polygon
   points="49.449,26.497 83.479,40.312 49.449,54.127 15.419,40.312 "
   id="polygon3019"
   transform="translate(-15.419,-26.497)" />
<path
   d="m 34.03,42.486 c -9.037,0 -16.764,-0.645 -20.41,-1.575 -1.419,2.962 -2.279,6.237 -2.279,9.733 0,12.525 10.15,22.688 22.689,22.688 12.52,0 22.688,-10.163 22.688,-22.688 0,-3.496 -0.859,-6.771 -2.278,-9.733 -3.645,0.931 -11.374,1.575 -20.41,1.575 z"
   id="path3021"
   style="fill:#008000"
   inkscape:connector-curvature="0" />
<path
   d="M 34.03,29.889 11.341,20.683 v 14.369 c 0,1.536 10.15,2.767 22.689,2.767 12.539,0 22.688,-1.23 22.688,-2.767 V 20.683 L 34.03,29.889 z"
   id="path3023"
   inkscape:connector-curvature="0" />
<path
   d="M 63.959,29.434 V 17.76 l -1.361,0.547 v 11.126 c -0.918,0.352 -1.588,1.36 -1.588,2.591 0,1.042 0.475,1.901 1.178,2.376 l -0.729,3.418 h 3.626 L 64.356,34.4 c 0.703,-0.475 1.191,-1.334 1.191,-2.376 0,-1.23 -0.677,-2.239 -1.588,-2.59 z"
   id="path3025"
   inkscape:connector-curvature="0" />

</svg>