<svg xmlns="http://www.w3.org/2000/svg" xmlns:xlink="http://www.w3.org/1999/xlink" version="1.1" id="Your_Icon" x="0px" y="0px" width="100px" height="100px" viewBox="0 0 100 100" enable-background="new 0 0 100 100" xml:space="preserve">
<g>
	<path fill="#000000" d="M99.471,88.993c-0.253-1.66-0.546-4.406-3.958-6.26c-10.347-5.622-23.233-8.653-27.574-11.971   c-1.6-0.892-1.334-3.897-1.714-5.941c-0.364-1.935-4.044,0.989-5.455,2.208c-3.499,3.043-6.93,4.59-10.19,4.59h-0.124   c-3.252,0-6.684-1.547-10.196-4.596c-1.851-1.6-6.222-3.606-6.607-1.564c-0.384,2.047,0.064,4.175-1.661,5.493   c-4.342,3.321-17.266,5.99-27.519,11.781c-3.683,2.077-3.703,4.599-3.958,6.26c-0.073,0.468-0.168,2.288-0.268,4.661h99.493   C99.639,91.281,99.544,89.463,99.471,88.993z"/>
</g>
<g>
	<path fill="#000000" d="M69.837,37.306c0.876-3.685,0.844-8.243,0.612-11.789c-1.357-6.29-7.783-7.847-11.084-7.847l-0.42,0.004   c-0.698,0.015-1.378,0.021-2.036,0.021c-0.001,0-0.001,0-0.002,0c-6.348,0-11.545-0.605-15.48-1.801   c0.199,0.564,0.242,1.103,0.124,1.61c-0.321,1.408-1.688,2.304-4.18,2.738c-6.359,1.106-7.571,17.031-7.575,17.194l-0.051-0.051   c-0.086-1.854-0.861-17.894,7.262-19.307c1.805-0.313,2.383-0.821,2.44-1.071c0.014-0.066,1.832-2.297-2.951-4.349   c0.001,0.002,0.001,0.004,0.002,0.007c-11.621,0.676-7.89,18.564-7.89,18.564l0.233,0.788c0.158,1.843,0.436,3.679,0.895,5.329   c0,0-4.031-0.475-1.428,8.992c0,0,1.296,3.108,3.646,2.669c0.236,1.202,0.552,2.389,0.964,3.548   c1.707,4.849,4.875,9.243,8.874,12.699c2.293,1.99,5.36,4.023,8.662,4.023h0.124c3.305,0,6.374-2.033,8.662-4.023   c4.009-3.456,7.172-7.851,8.878-12.699c0.354-1.008,0.648-2.218,0.879-3.553c1.739-0.442,2.602-2.76,2.602-2.76   C73.855,36.704,69.837,37.306,69.837,37.306z"/>
	<path fill="#000000" d="M36.535,12.559c1.53,1.025,9.287,3.195,22.369,2.922l0.492-0.005c4.784,0,8.291,1.483,10.45,4.382   c-0.004-0.029-0.01-0.071-0.01-0.071C67.488,0.659,33.996,5.529,36.458,12.516L36.535,12.559z"/>
</g>
</svg>